<svg xmlns="http://www.w3.org/2000/svg" width="128" height="128" viewBox="0 0 128 128" fill="none">
  <rect width="128" height="128" rx="28" fill="#08111F"/>
  <rect x="1" y="1" width="126" height="126" rx="27" stroke="#FF6A2A" stroke-opacity=".28" stroke-width="2"/>
  <path d="M34 82H73C84 82 93 73 93 62C93 51 84 42 73 42H34V56H73C76 56 79 59 79 62C79 65 76 68 73 68H34V82Z" fill="#FF6A2A"/>
  <path d="M34 34H83L104 48V94L83 108H34V94H77L90 86V56L77 48H34V34Z" fill="#D9D9D9" fill-opacity=".16"/>
</svg>
